<svg xmlns="http://www.w3.org/2000/svg" width="155" height="67.194" viewBox="0 0 155 67.194"><path fill-rule="evenodd" clip-rule="evenodd" fill="#9DDE1F" d="M112.159 9.332c8.777 0 15.892 7.115 15.892 15.892s-7.115 15.892-15.892 15.892-15.892-7.115-15.892-15.892 7.115-15.892 15.892-15.892zm4.139 21.729c-.952 0-1.731.779-1.731 1.731 0 .952.779 1.731 1.731 1.731.952 0 1.731-.779 1.731-1.731a1.737 1.737 0 0 0-1.731-1.731zm5.192-13.847h-1.516c-.823.034-1.452.334-1.799 1.021l-.32.71h-14.03c-.816 0-1.223.857-.896 1.489l3.006 5.434c.259.52.778.866 1.471.866h7.94l.779 1.471v.086c0 .086-.086.173-.173.173h-9.527a.866.866 0 1 0 0 1.73h9.873c.952 0 1.731-.779 1.731-1.731 0-.26-.086-.606-.173-.865l-1.212-2.077 3.116-6.577H121.491v.001a.866.866 0 0 0-.001-1.731zm-13.334 13.847c-.952 0-1.731.779-1.731 1.731 0 .952.779 1.731 1.731 1.731.951 0 1.731-.779 1.731-1.731a1.737 1.737 0 0 0-1.731-1.731z"/><path fill-rule="evenodd" clip-rule="evenodd" fill="#656565" d="M1.647 15.486C.549 15.486 0 15.031 0 14.114v-2.672c0-.917.542-1.372 1.625-1.372h22.319c1.084 0 1.625.455 1.625 1.372v2.672c0 .917-.549 1.372-1.647 1.372h-8.061v23.757c0 .773-.354 1.163-1.054 1.163h-4.045c-.701 0-1.055-.39-1.055-1.163V15.486h-8.06zm28.835 24.92c-.982 0-1.474-.527-1.474-1.589V11.658c0-1.062.492-1.589 1.474-1.589h3.207c.982 0 1.474.527 1.474 1.589v27.159c0 1.062-.491 1.589-1.474 1.589h-3.207zm12.95 0c-.982 0-1.474-.527-1.474-1.589V11.658c0-1.062.491-1.589 1.481-1.589h20.658c.989 0 1.481.527 1.481 1.589v27.159c0 1.062-.492 1.589-1.474 1.589h-3.207c-.983 0-1.474-.527-1.474-1.589V15.313h-11.31v23.504c0 1.062-.491 1.589-1.474 1.589h-3.207zm27.918-24.92c-1.098 0-1.647-.455-1.647-1.372v-2.672c0-.917.542-1.372 1.625-1.372h22.319c1.084 0 1.625.455 1.625 1.372v2.672c0 .917-.549 1.372-1.647 1.372h-8.061v23.757c0 .773-.354 1.163-1.054 1.163h-4.045c-.701 0-1.055-.39-1.055-1.163V15.486h-8.06zm61.504 24.92c-.978 0-1.474-.527-1.474-1.589V11.658c0-1.062.491-1.589 1.481-1.589h20.658c.99 0 1.481.529 1.481 1.589v27.159c0 1.06-.494 1.589-1.474 1.589h-3.207c-.981 0-1.474-.527-1.474-1.589V15.313h-11.311v23.504c0 1.06-.493 1.589-1.474 1.589h-3.206z"/><path fill-rule="evenodd" clip-rule="evenodd" fill="#9DDE1F" d="M30.482 6.279c-.975 0-1.474-.527-1.474-1.589V1.589C29.008.527 29.499 0 30.482 0h3.207c.982 0 1.474.531 1.474 1.589V4.69c0 1.058-.495 1.589-1.474 1.589h-3.207z"/><path fill-rule="evenodd" clip-rule="evenodd" fill="#B1B2B2" d="M23.735 62.161h-1.449v-6.825h1.449v6.825zm-1.536-8.633c0-.259.07-.459.213-.598.141-.141.343-.211.607-.211.255 0 .455.07.596.211.141.139.212.339.212.598 0 .247-.072.44-.212.583-.141.141-.341.213-.596.213-.263 0-.465-.072-.607-.213-.143-.142-.213-.336-.213-.583zm5.06 1.808v2.743h3.215v-2.743h1.452v6.825h-1.452v-2.945h-3.215v2.945h-1.451v-6.825h1.451zm11.87 0v1.138h-2.223v5.687h-1.458v-5.687h-2.222v-1.138h5.903zm4.169 6.951c-1.062 0-1.892-.31-2.49-.929-.598-.619-.898-1.475-.898-2.561 0-1.114.278-1.993.832-2.631.556-.638 1.319-.957 2.29-.957.9 0 1.612.274 2.134.821.523.548.784 1.302.784 2.262v.784h-4.546c.019.661.198 1.171.535 1.527.339.356.813.533 1.426.533.402 0 .777-.038 1.125-.114a5.86 5.86 0 0 0 1.121-.379v1.18a4.49 4.49 0 0 1-1.074.358 6.482 6.482 0 0 1-1.239.106zm-.266-5.978c-.461 0-.83.145-1.108.438-.278.293-.442.72-.497 1.281h3.096c-.008-.564-.143-.992-.406-1.283-.263-.29-.625-.436-1.085-.436zm8.03 5.978c-.864 0-1.536-.312-2.012-.933h-.086c.057.575.086.924.086 1.049v2.791H47.6v-9.859h1.173c.034.126.101.432.204.912h.074c.453-.693 1.131-1.038 2.035-1.038.853 0 1.517.31 1.991.927.476.617.712 1.483.712 2.599 0 1.117-.241 1.987-.725 2.612-.482.627-1.15.94-2.002.94zm-.351-5.89c-.577 0-.996.169-1.262.506-.266.337-.398.876-.398 1.618v.215c0 .832.131 1.433.394 1.805.263.373.693.559 1.289.559.504 0 .889-.206 1.161-.617.272-.41.406-.996.406-1.759 0-.765-.135-1.344-.402-1.736-.27-.395-.666-.591-1.188-.591zm6.214-1.061v2.743h3.215v-2.743h1.452v6.825H60.14v-2.945h-3.215v2.945h-1.451v-6.825h1.451zm9.719 6.951c-1.062 0-1.892-.31-2.49-.929-.598-.619-.898-1.475-.898-2.561 0-1.114.278-1.993.832-2.631.556-.638 1.319-.957 2.29-.957.9 0 1.612.274 2.134.821.523.548.784 1.302.784 2.262v.784H64.75c.019.661.198 1.171.535 1.527.339.356.813.533 1.426.533.402 0 .777-.038 1.124-.114a5.86 5.86 0 0 0 1.121-.379v1.18a4.49 4.49 0 0 1-1.074.358c-.36.071-.775.106-1.238.106zm-.266-5.978c-.461 0-.83.145-1.108.438-.278.293-.442.72-.497 1.281h3.096c-.008-.564-.143-.992-.406-1.283-.263-.29-.625-.436-1.085-.436zm9.699-.973v1.138h-2.223v5.687h-1.458v-5.687h-2.222v-1.138h5.903zm.468 4.057v-1.238h3.175v1.238h-3.175zm8.577 1.38l.08-.297c.17-.613.316-1.083.438-1.414l1.531-3.726h1.932v6.825h-1.34V56.65l-.112.371c-.183.661-.341 1.15-.468 1.462l-1.494 3.678H84.59l-1.491-3.703a16.37 16.37 0 0 1-.569-1.807v5.511h-1.327v-6.825h1.919l1.481 3.617c.134.332.307.938.519 1.819zm10.325 1.388l-.291-.948h-.049c-.329.415-.659.699-.994.849-.333.15-.761.225-1.283.225-.669 0-1.194-.181-1.569-.544-.377-.362-.564-.874-.564-1.538 0-.704.261-1.235.784-1.592.523-.358 1.319-.554 2.387-.586l1.18-.038v-.364c0-.436-.103-.763-.306-.98-.204-.217-.521-.325-.948-.325-.35 0-.684.051-1.005.154-.323.103-.63.225-.927.364l-.467-1.036a5.009 5.009 0 0 1 1.215-.442c.44-.101.855-.152 1.245-.152.87 0 1.525.19 1.966.569.442.377.663.973.663 1.784v4.599h-1.037v.001zm-2.16-.986c.527 0 .95-.148 1.268-.442.318-.295.478-.708.478-1.239V58.9l-.876.038c-.682.023-1.18.139-1.49.343-.312.202-.467.516-.467.936 0 .305.09.541.272.707.182.167.453.251.815.251zm9.631-5.839v1.138h-2.959v5.687h-1.451v-6.825h4.41zm5.587 6.825l-.291-.948h-.049c-.329.415-.659.699-.994.849-.333.15-.761.225-1.283.225-.67 0-1.194-.181-1.569-.544-.377-.362-.565-.874-.565-1.538 0-.704.262-1.235.784-1.592.523-.358 1.319-.554 2.387-.586l1.18-.038v-.364c0-.436-.103-.763-.306-.98-.204-.217-.521-.325-.948-.325-.35 0-.684.051-1.005.154a7.76 7.76 0 0 0-.927.364l-.467-1.036a5.009 5.009 0 0 1 1.215-.442c.44-.101.855-.152 1.245-.152.87 0 1.525.19 1.966.569.442.377.663.973.663 1.784v4.599h-1.036v.001zm-2.16-.986c.527 0 .95-.148 1.269-.442.318-.295.478-.708.478-1.239V58.9l-.876.038c-.682.023-1.18.139-1.49.343-.312.202-.467.516-.467.936 0 .305.091.541.272.707.181.167.452.251.814.251zm6.727-3.109c.661 0 1.15-.074 1.462-.219.314-.148.47-.373.47-.678 0-.557-.495-.834-1.481-.834-.659 0-1.331.148-2.018.444l-.469-1.081c.794-.327 1.67-.489 2.629-.489.849 0 1.506.156 1.976.466.467.312.703.758.703 1.338 0 .767-.438 1.268-1.315 1.509v.048c.546.15.938.36 1.176.636.236.276.354.617.354 1.026 0 .626-.274 1.125-.824 1.498-.55.373-1.314.558-2.298.558-1.074 0-1.896-.143-2.463-.427v-1.254a5.431 5.431 0 0 0 2.338.531c.581 0 1.028-.083 1.342-.244.316-.162.472-.411.472-.746 0-.341-.158-.592-.474-.755-.318-.16-.807-.24-1.469-.24h-.834v-1.087h.723zm6.443-2.73v3.499c0 .406-.034 1.007-.099 1.797l3.427-5.296h1.771v6.825h-1.396v-3.438c0-.19.012-.495.036-.919.021-.423.042-.733.057-.926l-3.415 5.283h-1.772v-6.825h1.391zm8.616 0v2.743h3.214v-2.743h1.452v6.825h-1.452v-2.945h-3.214v2.945h-1.451v-6.825h1.451z"/></svg>